# xmcd CD database file
#
# Track frame offsets:
#	150
#	25512
#	54013
#	73773
#	105928
#	130823
#	156776
#	192266
#	219868
#
# Disc length: 3311 seconds
#
# Revision: 0
# Processed by: cddbd v1.5.2PL0 Copyright (c) Steve Scherf et al.
# Submitted via: CDex 1.70beta2
#
DISCID=680ced09
DTITLE=Mathias Schabow Trio - Prélude
DYEAR=2013
DGENRE=Jazz
TTITLE0=Prélude
TTITLE1=Eisblumen am Fenster
TTITLE2=Emely
TTITLE3=#1
TTITLE4=#3
TTITLE5=#5
TTITLE6=Aquilone
TTITLE7=Herbststürme
TTITLE8=Seebrücke
EXTD=YEAR: 2013
EXTT0=
EXTT1=
EXTT2=
EXTT3=
EXTT4=
EXTT5=
EXTT6=
EXTT7=
EXTT8=
PLAYORDER=
